<mxfile host="app.diagrams.net" modified="2023-01-04T03:58:01.211Z" agent="5.0 (Macintosh; Intel Mac OS X 10_14_5) AppleWebKit/537.36 (KHTML, like Gecko) Chrome/108.0.0.0 Safari/537.36" version="20.7.4" etag="TqYb5hgj1dkfP4ykkVi1" type="github" pages="3">
  <diagram id="a-b1EwFPriSwJL8Rbxt_" name="第 1 页">
    <mxGraphModel dx="930" dy="627" grid="1" gridSize="10" guides="1" tooltips="1" connect="1" arrows="1" fold="1" page="1" pageScale="1" pageWidth="827" pageHeight="1169" math="0" shadow="0">
      <root>
        <mxCell id="0" />
        <mxCell id="1" parent="0" />
        <mxCell id="PkNH1LylrmU3jPOz_vy8-1" value="O1" style="rounded=0;whiteSpace=wrap;html=1;" vertex="1" parent="1">
          <mxGeometry x="150" y="180" width="120" height="60" as="geometry" />
        </mxCell>
        <mxCell id="PkNH1LylrmU3jPOz_vy8-2" value="O&#39;2" style="rounded=0;whiteSpace=wrap;html=1;" vertex="1" parent="1">
          <mxGeometry x="150" y="280" width="120" height="60" as="geometry" />
        </mxCell>
        <mxCell id="PkNH1LylrmU3jPOz_vy8-3" value="70M" style="rounded=0;whiteSpace=wrap;html=1;" vertex="1" parent="1">
          <mxGeometry x="390" y="270" width="120" height="60" as="geometry" />
        </mxCell>
        <mxCell id="PkNH1LylrmU3jPOz_vy8-4" value="" style="endArrow=classic;html=1;rounded=0;exitX=1;exitY=0.5;exitDx=0;exitDy=0;entryX=0;entryY=0.5;entryDx=0;entryDy=0;" edge="1" parent="1" source="PkNH1LylrmU3jPOz_vy8-1" target="PkNH1LylrmU3jPOz_vy8-3">
          <mxGeometry width="50" height="50" relative="1" as="geometry">
            <mxPoint x="390" y="600" as="sourcePoint" />
            <mxPoint x="400" y="290" as="targetPoint" />
          </mxGeometry>
        </mxCell>
        <mxCell id="PkNH1LylrmU3jPOz_vy8-5" value="" style="endArrow=classic;html=1;rounded=0;exitX=1;exitY=0.5;exitDx=0;exitDy=0;entryX=0;entryY=0.75;entryDx=0;entryDy=0;" edge="1" parent="1" source="PkNH1LylrmU3jPOz_vy8-2" target="PkNH1LylrmU3jPOz_vy8-3">
          <mxGeometry width="50" height="50" relative="1" as="geometry">
            <mxPoint x="280" y="220" as="sourcePoint" />
            <mxPoint x="480" y="260" as="targetPoint" />
          </mxGeometry>
        </mxCell>
        <mxCell id="PkNH1LylrmU3jPOz_vy8-6" value="O1" style="rounded=0;whiteSpace=wrap;html=1;" vertex="1" parent="1">
          <mxGeometry x="150" y="610" width="120" height="60" as="geometry" />
        </mxCell>
        <mxCell id="PkNH1LylrmU3jPOz_vy8-7" value="O&#39;100" style="rounded=0;whiteSpace=wrap;html=1;" vertex="1" parent="1">
          <mxGeometry x="150" y="390" width="120" height="60" as="geometry" />
        </mxCell>
        <mxCell id="PkNH1LylrmU3jPOz_vy8-9" value="" style="endArrow=classic;html=1;rounded=0;exitX=1.017;exitY=0.4;exitDx=0;exitDy=0;entryX=-0.025;entryY=0.867;entryDx=0;entryDy=0;exitPerimeter=0;entryPerimeter=0;" edge="1" parent="1" source="PkNH1LylrmU3jPOz_vy8-7" target="PkNH1LylrmU3jPOz_vy8-3">
          <mxGeometry width="50" height="50" relative="1" as="geometry">
            <mxPoint x="280" y="380" as="sourcePoint" />
            <mxPoint x="420" y="305" as="targetPoint" />
          </mxGeometry>
        </mxCell>
        <mxCell id="PkNH1LylrmU3jPOz_vy8-10" value="O2" style="rounded=0;whiteSpace=wrap;html=1;" vertex="1" parent="1">
          <mxGeometry x="150" y="710" width="120" height="60" as="geometry" />
        </mxCell>
        <mxCell id="PkNH1LylrmU3jPOz_vy8-11" value="1M" style="rounded=0;whiteSpace=wrap;html=1;" vertex="1" parent="1">
          <mxGeometry x="414" y="610" width="120" height="60" as="geometry" />
        </mxCell>
        <mxCell id="PkNH1LylrmU3jPOz_vy8-12" value="1M" style="rounded=0;whiteSpace=wrap;html=1;" vertex="1" parent="1">
          <mxGeometry x="414" y="710" width="120" height="60" as="geometry" />
        </mxCell>
        <mxCell id="PkNH1LylrmU3jPOz_vy8-13" value="" style="endArrow=classic;html=1;rounded=0;exitX=1;exitY=0.5;exitDx=0;exitDy=0;" edge="1" parent="1" source="PkNH1LylrmU3jPOz_vy8-6">
          <mxGeometry width="50" height="50" relative="1" as="geometry">
            <mxPoint x="280" y="220" as="sourcePoint" />
            <mxPoint x="410" y="640" as="targetPoint" />
          </mxGeometry>
        </mxCell>
        <mxCell id="PkNH1LylrmU3jPOz_vy8-14" value="" style="endArrow=classic;html=1;rounded=0;exitX=1;exitY=0.5;exitDx=0;exitDy=0;entryX=0;entryY=0.5;entryDx=0;entryDy=0;" edge="1" parent="1" source="PkNH1LylrmU3jPOz_vy8-10" target="PkNH1LylrmU3jPOz_vy8-12">
          <mxGeometry width="50" height="50" relative="1" as="geometry">
            <mxPoint x="280" y="650" as="sourcePoint" />
            <mxPoint x="420" y="650" as="targetPoint" />
          </mxGeometry>
        </mxCell>
        <mxCell id="PkNH1LylrmU3jPOz_vy8-15" value="O100" style="rounded=0;whiteSpace=wrap;html=1;" vertex="1" parent="1">
          <mxGeometry x="150" y="810" width="120" height="60" as="geometry" />
        </mxCell>
        <mxCell id="PkNH1LylrmU3jPOz_vy8-16" value="1M" style="rounded=0;whiteSpace=wrap;html=1;" vertex="1" parent="1">
          <mxGeometry x="414" y="810" width="120" height="60" as="geometry" />
        </mxCell>
        <mxCell id="PkNH1LylrmU3jPOz_vy8-17" value="" style="endArrow=classic;html=1;rounded=0;exitX=1;exitY=0.5;exitDx=0;exitDy=0;entryX=0;entryY=0.5;entryDx=0;entryDy=0;" edge="1" parent="1">
          <mxGeometry width="50" height="50" relative="1" as="geometry">
            <mxPoint x="266" y="839.5" as="sourcePoint" />
            <mxPoint x="410" y="839.5" as="targetPoint" />
          </mxGeometry>
        </mxCell>
      </root>
    </mxGraphModel>
  </diagram>
  <diagram id="Wnn_VxwxfeQUBLdOn220" name="第 2 页">
    <mxGraphModel dx="930" dy="627" grid="1" gridSize="10" guides="1" tooltips="1" connect="1" arrows="1" fold="1" page="1" pageScale="1" pageWidth="827" pageHeight="1169" math="0" shadow="0">
      <root>
        <mxCell id="0" />
        <mxCell id="1" parent="0" />
        <mxCell id="t9t8lJcs9l38ce_2cEyA-5" style="edgeStyle=orthogonalEdgeStyle;rounded=0;orthogonalLoop=1;jettySize=auto;html=1;entryX=0;entryY=0.5;entryDx=0;entryDy=0;" edge="1" parent="1" source="t9t8lJcs9l38ce_2cEyA-1" target="t9t8lJcs9l38ce_2cEyA-2">
          <mxGeometry relative="1" as="geometry" />
        </mxCell>
        <mxCell id="t9t8lJcs9l38ce_2cEyA-6" value="1.p2p" style="edgeLabel;html=1;align=center;verticalAlign=middle;resizable=0;points=[];" vertex="1" connectable="0" parent="t9t8lJcs9l38ce_2cEyA-5">
          <mxGeometry x="-0.2361" relative="1" as="geometry">
            <mxPoint y="1" as="offset" />
          </mxGeometry>
        </mxCell>
        <mxCell id="t9t8lJcs9l38ce_2cEyA-7" style="edgeStyle=orthogonalEdgeStyle;rounded=0;orthogonalLoop=1;jettySize=auto;html=1;" edge="1" parent="1" source="t9t8lJcs9l38ce_2cEyA-1">
          <mxGeometry relative="1" as="geometry">
            <mxPoint x="250" y="250" as="targetPoint" />
          </mxGeometry>
        </mxCell>
        <mxCell id="t9t8lJcs9l38ce_2cEyA-8" value="2. 用户减20" style="edgeLabel;html=1;align=center;verticalAlign=middle;resizable=0;points=[];" vertex="1" connectable="0" parent="t9t8lJcs9l38ce_2cEyA-7">
          <mxGeometry x="-0.2286" y="2" relative="1" as="geometry">
            <mxPoint x="-7" y="22" as="offset" />
          </mxGeometry>
        </mxCell>
        <mxCell id="t9t8lJcs9l38ce_2cEyA-1" value="A+" style="rounded=0;whiteSpace=wrap;html=1;" vertex="1" parent="1">
          <mxGeometry x="150" y="180" width="120" height="60" as="geometry" />
        </mxCell>
        <mxCell id="t9t8lJcs9l38ce_2cEyA-14" style="edgeStyle=orthogonalEdgeStyle;rounded=0;orthogonalLoop=1;jettySize=auto;html=1;entryX=0;entryY=0.5;entryDx=0;entryDy=0;" edge="1" parent="1" source="t9t8lJcs9l38ce_2cEyA-2" target="t9t8lJcs9l38ce_2cEyA-13">
          <mxGeometry relative="1" as="geometry" />
        </mxCell>
        <mxCell id="t9t8lJcs9l38ce_2cEyA-2" value="Meeza" style="rounded=0;whiteSpace=wrap;html=1;" vertex="1" parent="1">
          <mxGeometry x="414" y="180" width="120" height="60" as="geometry" />
        </mxCell>
        <mxCell id="t9t8lJcs9l38ce_2cEyA-9" style="edgeStyle=orthogonalEdgeStyle;rounded=0;orthogonalLoop=1;jettySize=auto;html=1;" edge="1" parent="1" source="t9t8lJcs9l38ce_2cEyA-3">
          <mxGeometry relative="1" as="geometry">
            <mxPoint x="430" y="390" as="targetPoint" />
          </mxGeometry>
        </mxCell>
        <mxCell id="t9t8lJcs9l38ce_2cEyA-10" value="3.T+1 减20" style="edgeLabel;html=1;align=center;verticalAlign=middle;resizable=0;points=[];" vertex="1" connectable="0" parent="t9t8lJcs9l38ce_2cEyA-9">
          <mxGeometry x="-0.125" relative="1" as="geometry">
            <mxPoint y="1" as="offset" />
          </mxGeometry>
        </mxCell>
        <mxCell id="t9t8lJcs9l38ce_2cEyA-3" value="Alex Bank" style="rounded=0;whiteSpace=wrap;html=1;" vertex="1" parent="1">
          <mxGeometry x="320" y="320" width="120" height="60" as="geometry" />
        </mxCell>
        <mxCell id="t9t8lJcs9l38ce_2cEyA-4" value="A+ 转给 S2 20" style="text;html=1;strokeColor=none;fillColor=none;align=center;verticalAlign=middle;whiteSpace=wrap;rounded=0;" vertex="1" parent="1">
          <mxGeometry x="150" y="110" width="140" height="30" as="geometry" />
        </mxCell>
        <mxCell id="t9t8lJcs9l38ce_2cEyA-11" style="edgeStyle=orthogonalEdgeStyle;rounded=0;orthogonalLoop=1;jettySize=auto;html=1;" edge="1" parent="1" source="t9t8lJcs9l38ce_2cEyA-2">
          <mxGeometry relative="1" as="geometry">
            <mxPoint x="510" y="250" as="targetPoint" />
          </mxGeometry>
        </mxCell>
        <mxCell id="t9t8lJcs9l38ce_2cEyA-12" value="1.1 A+用户减20&lt;br&gt;S2 加20" style="edgeLabel;html=1;align=center;verticalAlign=middle;resizable=0;points=[];" vertex="1" connectable="0" parent="t9t8lJcs9l38ce_2cEyA-11">
          <mxGeometry x="0.1515" relative="1" as="geometry">
            <mxPoint y="1" as="offset" />
          </mxGeometry>
        </mxCell>
        <mxCell id="t9t8lJcs9l38ce_2cEyA-15" style="edgeStyle=orthogonalEdgeStyle;rounded=0;orthogonalLoop=1;jettySize=auto;html=1;exitX=0.5;exitY=1;exitDx=0;exitDy=0;" edge="1" parent="1" source="t9t8lJcs9l38ce_2cEyA-13">
          <mxGeometry relative="1" as="geometry">
            <mxPoint x="730" y="250" as="targetPoint" />
          </mxGeometry>
        </mxCell>
        <mxCell id="t9t8lJcs9l38ce_2cEyA-16" value="1.1 S2 用户加20" style="edgeLabel;html=1;align=center;verticalAlign=middle;resizable=0;points=[];" vertex="1" connectable="0" parent="t9t8lJcs9l38ce_2cEyA-15">
          <mxGeometry x="0.1429" y="-3" relative="1" as="geometry">
            <mxPoint x="-10" y="17" as="offset" />
          </mxGeometry>
        </mxCell>
        <mxCell id="t9t8lJcs9l38ce_2cEyA-13" value="S2" style="rounded=0;whiteSpace=wrap;html=1;" vertex="1" parent="1">
          <mxGeometry x="630" y="180" width="120" height="60" as="geometry" />
        </mxCell>
        <mxCell id="t9t8lJcs9l38ce_2cEyA-18" value="3. T+1 加20" style="edgeStyle=orthogonalEdgeStyle;rounded=0;orthogonalLoop=1;jettySize=auto;html=1;" edge="1" parent="1" source="t9t8lJcs9l38ce_2cEyA-17">
          <mxGeometry relative="1" as="geometry">
            <mxPoint x="710" y="390" as="targetPoint" />
          </mxGeometry>
        </mxCell>
        <mxCell id="t9t8lJcs9l38ce_2cEyA-17" value="S2 Bank" style="rounded=0;whiteSpace=wrap;html=1;" vertex="1" parent="1">
          <mxGeometry x="610" y="320" width="120" height="60" as="geometry" />
        </mxCell>
        <mxCell id="t9t8lJcs9l38ce_2cEyA-19" style="edgeStyle=orthogonalEdgeStyle;rounded=0;orthogonalLoop=1;jettySize=auto;html=1;entryX=0;entryY=0.5;entryDx=0;entryDy=0;" edge="1" parent="1" source="t9t8lJcs9l38ce_2cEyA-23" target="t9t8lJcs9l38ce_2cEyA-25">
          <mxGeometry relative="1" as="geometry" />
        </mxCell>
        <mxCell id="t9t8lJcs9l38ce_2cEyA-20" value="1.p2p" style="edgeLabel;html=1;align=center;verticalAlign=middle;resizable=0;points=[];" vertex="1" connectable="0" parent="t9t8lJcs9l38ce_2cEyA-19">
          <mxGeometry x="-0.2361" relative="1" as="geometry">
            <mxPoint y="1" as="offset" />
          </mxGeometry>
        </mxCell>
        <mxCell id="t9t8lJcs9l38ce_2cEyA-21" style="edgeStyle=orthogonalEdgeStyle;rounded=0;orthogonalLoop=1;jettySize=auto;html=1;" edge="1" parent="1" source="t9t8lJcs9l38ce_2cEyA-23">
          <mxGeometry relative="1" as="geometry">
            <mxPoint x="250" y="600" as="targetPoint" />
          </mxGeometry>
        </mxCell>
        <mxCell id="t9t8lJcs9l38ce_2cEyA-22" value="2. 用户减20" style="edgeLabel;html=1;align=center;verticalAlign=middle;resizable=0;points=[];" vertex="1" connectable="0" parent="t9t8lJcs9l38ce_2cEyA-21">
          <mxGeometry x="-0.2286" y="2" relative="1" as="geometry">
            <mxPoint x="-7" y="22" as="offset" />
          </mxGeometry>
        </mxCell>
        <mxCell id="t9t8lJcs9l38ce_2cEyA-23" value="S2" style="rounded=0;whiteSpace=wrap;html=1;" vertex="1" parent="1">
          <mxGeometry x="150" y="530" width="120" height="60" as="geometry" />
        </mxCell>
        <mxCell id="t9t8lJcs9l38ce_2cEyA-24" style="edgeStyle=orthogonalEdgeStyle;rounded=0;orthogonalLoop=1;jettySize=auto;html=1;entryX=0;entryY=0.5;entryDx=0;entryDy=0;" edge="1" parent="1" source="t9t8lJcs9l38ce_2cEyA-25" target="t9t8lJcs9l38ce_2cEyA-34">
          <mxGeometry relative="1" as="geometry" />
        </mxCell>
        <mxCell id="t9t8lJcs9l38ce_2cEyA-25" value="Meeza" style="rounded=0;whiteSpace=wrap;html=1;" vertex="1" parent="1">
          <mxGeometry x="414" y="530" width="120" height="60" as="geometry" />
        </mxCell>
        <mxCell id="t9t8lJcs9l38ce_2cEyA-26" style="edgeStyle=orthogonalEdgeStyle;rounded=0;orthogonalLoop=1;jettySize=auto;html=1;" edge="1" parent="1" source="t9t8lJcs9l38ce_2cEyA-28">
          <mxGeometry relative="1" as="geometry">
            <mxPoint x="430" y="740" as="targetPoint" />
          </mxGeometry>
        </mxCell>
        <mxCell id="t9t8lJcs9l38ce_2cEyA-27" value="3.T+1 减20" style="edgeLabel;html=1;align=center;verticalAlign=middle;resizable=0;points=[];" vertex="1" connectable="0" parent="t9t8lJcs9l38ce_2cEyA-26">
          <mxGeometry x="-0.125" relative="1" as="geometry">
            <mxPoint y="1" as="offset" />
          </mxGeometry>
        </mxCell>
        <mxCell id="t9t8lJcs9l38ce_2cEyA-28" value="S2 Bank" style="rounded=0;whiteSpace=wrap;html=1;" vertex="1" parent="1">
          <mxGeometry x="320" y="670" width="120" height="60" as="geometry" />
        </mxCell>
        <mxCell id="t9t8lJcs9l38ce_2cEyA-29" value="S2 转给 A+ 20" style="text;html=1;strokeColor=none;fillColor=none;align=center;verticalAlign=middle;whiteSpace=wrap;rounded=0;" vertex="1" parent="1">
          <mxGeometry x="150" y="460" width="140" height="30" as="geometry" />
        </mxCell>
        <mxCell id="t9t8lJcs9l38ce_2cEyA-30" style="edgeStyle=orthogonalEdgeStyle;rounded=0;orthogonalLoop=1;jettySize=auto;html=1;" edge="1" parent="1" source="t9t8lJcs9l38ce_2cEyA-25">
          <mxGeometry relative="1" as="geometry">
            <mxPoint x="510" y="600" as="targetPoint" />
          </mxGeometry>
        </mxCell>
        <mxCell id="t9t8lJcs9l38ce_2cEyA-31" value="1.1 A+用户加20&lt;br&gt;S2 减20" style="edgeLabel;html=1;align=center;verticalAlign=middle;resizable=0;points=[];" vertex="1" connectable="0" parent="t9t8lJcs9l38ce_2cEyA-30">
          <mxGeometry x="0.1515" relative="1" as="geometry">
            <mxPoint y="1" as="offset" />
          </mxGeometry>
        </mxCell>
        <mxCell id="t9t8lJcs9l38ce_2cEyA-32" style="edgeStyle=orthogonalEdgeStyle;rounded=0;orthogonalLoop=1;jettySize=auto;html=1;exitX=0.5;exitY=1;exitDx=0;exitDy=0;" edge="1" parent="1" source="t9t8lJcs9l38ce_2cEyA-34">
          <mxGeometry relative="1" as="geometry">
            <mxPoint x="730" y="600" as="targetPoint" />
          </mxGeometry>
        </mxCell>
        <mxCell id="t9t8lJcs9l38ce_2cEyA-33" value="1.1 &lt;br&gt;渠道应收账户减20，平台内部户加20&lt;br&gt;平台内部户减20，用户账户加20&lt;br&gt;" style="edgeLabel;html=1;align=center;verticalAlign=middle;resizable=0;points=[];" vertex="1" connectable="0" parent="t9t8lJcs9l38ce_2cEyA-32">
          <mxGeometry x="0.1429" y="-3" relative="1" as="geometry">
            <mxPoint x="-10" y="17" as="offset" />
          </mxGeometry>
        </mxCell>
        <mxCell id="t9t8lJcs9l38ce_2cEyA-34" value="A+" style="rounded=0;whiteSpace=wrap;html=1;" vertex="1" parent="1">
          <mxGeometry x="630" y="530" width="120" height="60" as="geometry" />
        </mxCell>
        <mxCell id="t9t8lJcs9l38ce_2cEyA-35" value="3. T+1 加20" style="edgeStyle=orthogonalEdgeStyle;rounded=0;orthogonalLoop=1;jettySize=auto;html=1;" edge="1" parent="1" source="t9t8lJcs9l38ce_2cEyA-36">
          <mxGeometry relative="1" as="geometry">
            <mxPoint x="710" y="740" as="targetPoint" />
          </mxGeometry>
        </mxCell>
        <mxCell id="t9t8lJcs9l38ce_2cEyA-36" value="Alex Bank" style="rounded=0;whiteSpace=wrap;html=1;" vertex="1" parent="1">
          <mxGeometry x="610" y="670" width="120" height="60" as="geometry" />
        </mxCell>
      </root>
    </mxGraphModel>
  </diagram>
  <diagram id="Zjfm0oVFWq-q0WRdK3qi" name="第 3 页">
    <mxGraphModel dx="930" dy="627" grid="1" gridSize="10" guides="1" tooltips="1" connect="1" arrows="1" fold="1" page="1" pageScale="1" pageWidth="827" pageHeight="1169" math="0" shadow="0">
      <root>
        <mxCell id="0" />
        <mxCell id="1" parent="0" />
      </root>
    </mxGraphModel>
  </diagram>
</mxfile>
